<svg width="24" height="24" viewBox="0 0 24 24" fill="none" xmlns="http://www.w3.org/2000/svg">
<path d="M13.4365 13.7493C14.697 13.7493 15.7704 13.8033 16.6669 13.969C17.567 14.1354 18.34 14.4237 18.958 14.929C20.2119 15.9548 20.5698 17.6527 20.6376 19.9778C20.6413 20.1021 20.6455 20.2427 20.6386 20.3645C20.6311 20.4976 20.608 20.669 20.5214 20.8479C20.4051 21.0883 20.2105 21.289 19.9736 21.4124C19.7957 21.5049 19.6226 21.533 19.4902 21.5442C19.3677 21.5545 19.225 21.554 19.0976 21.554H4.90132C4.77388 21.554 4.63112 21.5545 4.50874 21.5442C4.37631 21.533 4.20304 21.5049 4.02534 21.4124C3.78869 21.289 3.59377 21.0881 3.47749 20.8479C3.3911 20.6692 3.36783 20.4975 3.3603 20.3645C3.35343 20.2427 3.35863 20.1021 3.36225 19.9778C3.43009 17.6526 3.78777 15.9547 5.04194 14.929C5.65982 14.4237 6.43208 14.1355 7.33198 13.969C8.2286 13.8032 9.30272 13.7493 10.5634 13.7493H13.4365ZM11.9999 2.44653C14.7337 2.44664 16.9501 4.66298 16.9501 7.39673C16.95 10.1304 14.7336 12.3468 11.9999 12.3469C9.26629 12.3468 7.04986 10.1304 7.04975 7.39673C7.04975 4.66298 9.26623 2.44664 11.9999 2.44653Z" fill="#2F3438"/>
</svg>
