<svg width="24" height="24" viewBox="0 0 24 24" fill="none" xmlns="http://www.w3.org/2000/svg">
<path d="M14.0684 2.61523C14.5404 2.62728 14.9871 2.66137 15.4092 2.71582C15.6462 2.74641 15.8752 2.78396 16.0967 2.82812C19.5248 3.51161 21.0996 5.83021 21.0996 10.0645V10.2412C21.0786 14.4265 20.3083 17.0674 18.8789 18.7461C18.7941 18.8457 18.7075 18.9422 18.6182 19.0352C18.5341 19.1225 18.4485 19.2074 18.3604 19.2891C17.9201 19.6974 17.4289 20.0356 16.8896 20.3174C16.7815 20.3739 16.6716 20.4284 16.5596 20.4805C16.3361 20.5843 16.105 20.6794 15.8662 20.7666C15.3885 20.941 14.8802 21.0835 14.3428 21.2012L14.0742 21.2598C13.9363 21.2894 13.8127 21.3146 13.7021 21.335L13.6924 21.3369C13.5872 21.3561 13.4934 21.3691 13.4092 21.3779C13.3946 21.3795 13.3803 21.3806 13.3662 21.3818C13.3451 21.3836 13.3246 21.3857 13.3047 21.3867C13.2635 21.3888 13.2249 21.3883 13.1885 21.3867C13.1849 21.3866 13.1813 21.3869 13.1777 21.3867C13.134 21.3843 13.0934 21.3803 13.0557 21.3721L12.9678 21.3457L12.9443 21.335C12.8586 21.2953 12.7835 21.2458 12.7197 21.1865C12.613 21.0871 12.5369 20.96 12.4941 20.8076C12.4856 20.777 12.4815 20.7439 12.4795 20.708C12.4793 20.7048 12.4786 20.7015 12.4785 20.6982V20.6357C12.4794 20.6178 12.4822 20.5993 12.4844 20.5801C12.4852 20.5727 12.4853 20.5652 12.4863 20.5576C12.4924 20.5131 12.5014 20.465 12.5137 20.4131C12.5299 20.3443 12.5524 20.269 12.5791 20.1855C12.6173 20.0662 12.6645 19.9305 12.7227 19.7764C12.7885 19.6016 12.8667 19.4022 12.9561 19.1748C12.98 19.1138 13.0023 19.0536 13.0225 18.9951C13.0468 18.9244 13.0656 18.8714 13.0742 18.8213C13.0828 18.7709 13.0809 18.7233 13.0664 18.6641C13.0611 18.6428 13.0521 18.6195 13.04 18.5957C13.0159 18.5482 12.9807 18.4989 12.9434 18.4609C12.9248 18.442 12.9051 18.4258 12.8867 18.4141C12.8355 18.3816 12.7853 18.3653 12.7236 18.3574L12.4902 18.3506L9.93164 18.3643V18.3623C4.31976 18.2921 2.89948 16.7336 2.89941 10.9111V10.0645C2.89941 4.24168 4.31964 2.6835 9.93164 2.61328V2.61035H14.0684V2.61523Z" fill="#2F3438"/>
</svg>
