<svg width="24" height="24" viewBox="0 0 24 24" fill="none" xmlns="http://www.w3.org/2000/svg">
<path d="M20.46 15.0754C20.2902 17.2464 19.7955 18.911 18.542 20.0129C17.1146 21.2675 14.9292 21.5823 12 21.5823C9.0708 21.5823 6.88541 21.2675 5.45801 20.0129C4.2044 18.911 3.70977 17.2464 3.54004 15.0754H20.46ZM12.9551 2.32739C13.6798 2.32754 14.3075 2.76494 14.3076 3.20239V6.83228C14.3076 7.31561 14.6993 7.70825 15.1826 7.70825C15.6658 7.70812 16.0576 7.31553 16.0576 6.83228V3.97974C16.0576 3.77686 16.2452 3.62533 16.4414 3.677C17.7507 4.0219 18.7614 4.6314 19.4609 5.66821C20.4236 7.09529 20.6577 9.16086 20.6709 11.8499H21.0254C21.5223 11.8501 21.9248 12.2533 21.9248 12.7502C21.9247 13.2471 21.5222 13.6494 21.0254 13.6497H3.02539C2.5284 13.6497 2.12511 13.2472 2.125 12.7502C2.125 12.2532 2.52833 11.8499 3.02539 11.8499H3.3291C3.34232 9.16086 3.5764 7.09529 4.53906 5.66821C5.23865 4.63141 6.24927 4.02191 7.55859 3.677C7.75478 3.62533 7.94238 3.77686 7.94238 3.97974V6.83228C7.94238 7.31553 8.33416 7.70812 8.81738 7.70825C9.30071 7.70824 9.69238 7.31561 9.69238 6.83228V3.20239C9.69253 2.76494 10.3202 2.32754 11.0449 2.32739H12.9551Z" fill="#2F3438"/>
</svg>
