<svg width="24" height="24" viewBox="0 0 24 24" fill="none" xmlns="http://www.w3.org/2000/svg">
<path d="M14.0679 2.61536C18.908 2.73882 21.1 5.06961 21.1 10.0646L21.099 10.2413C21.0615 17.708 18.6425 20.2601 14.3433 21.2013L14.0737 21.2599L13.6929 21.3371C13.4103 21.3887 13.2104 21.4059 13.0562 21.3722L12.9683 21.3458L12.9448 21.3351C12.7152 21.229 12.563 21.0513 12.4946 20.8078C12.4385 20.607 12.5255 20.3009 12.7232 19.7765L12.9566 19.1749L13.023 18.9953C13.0718 18.8535 13.0959 18.7823 13.0669 18.6642C13.0459 18.5791 12.9611 18.4612 12.8872 18.4142C12.8359 18.3816 12.7859 18.3655 12.7241 18.3576L12.4907 18.3507L9.93218 18.3644V18.3615L9.9312 18.3605L9.93218 18.3302V18.3615C4.32017 18.2913 2.90002 16.7331 2.90002 10.9103V10.0646C2.90002 4.24177 4.32016 2.68361 9.93218 2.6134V2.61047H14.0679V2.61536ZM4.80039 10.9103C4.80039 13.8303 5.1989 14.9622 5.69687 15.4933C6.16403 15.9913 7.16995 16.4272 9.95561 16.462L10.105 16.463L12.48 16.4503C12.5281 16.4501 13.1585 16.3969 13.7827 16.7374L13.9077 16.8117L14.02 16.8878C14.2717 17.0715 14.4413 17.2789 14.5405 17.4171C14.6396 17.5553 14.782 17.7829 14.8755 18.0802L14.9126 18.2111L14.9409 18.3449C14.9912 18.619 14.9827 18.8663 14.9556 19.0695C16.2402 18.6491 17.1183 18.0272 17.7475 17.1007C18.5844 15.8684 19.1816 13.8117 19.1997 10.2326V10.0646L19.1938 9.65247C19.1363 7.64828 18.6568 6.49484 18.0171 5.81653C17.347 5.10623 16.1727 4.56974 14.02 4.51477L13.8657 4.51087H10.1119L9.95561 4.51282C7.16997 4.54767 6.16403 4.98357 5.69687 5.48157C5.19882 6.01262 4.80039 7.14431 4.80039 10.0646V10.9103Z" fill="#2F3438"/>
</svg>
