<svg width="24" height="24" viewBox="0 0 24 24" fill="none" xmlns="http://www.w3.org/2000/svg">
<path d="M13.2856 2.1676C14.0646 2.1676 14.7238 2.67591 14.9526 3.37854C16.9445 3.63888 18.4365 4.27399 19.3794 5.67151C20.3948 7.17679 20.6137 9.36899 20.6138 12.2086V12.6071H20.8999C21.4246 12.6071 21.8501 13.0326 21.8501 13.5573C21.8501 14.0819 21.4246 14.5074 20.8999 14.5074H20.5405C20.4058 16.9127 19.9332 18.7567 18.5747 19.9508C17.1318 21.2189 14.9281 21.5328 11.9995 21.5328C9.07108 21.5328 6.86715 21.2188 5.42432 19.9508C4.06616 18.7567 3.59331 16.9125 3.4585 14.5074H3.1001C2.57543 14.5074 2.1499 14.0819 2.1499 13.5573C2.1499 13.0326 2.57543 12.6071 3.1001 12.6071H3.38623V12.2086C3.38626 9.36899 3.60519 7.17679 4.62061 5.67151C5.56319 4.27455 7.05452 3.63902 9.04541 3.37854C9.27408 2.67581 9.93448 2.16778 10.7134 2.1676H13.2856ZM5.36279 14.5074C5.49983 16.7259 5.93089 17.8663 6.6792 18.524C7.53367 19.2749 9.05288 19.6324 11.9995 19.6324C14.9464 19.6324 16.4663 19.275 17.3208 18.524C18.069 17.8663 18.5002 16.7258 18.6372 14.5074H5.36279ZM10.8599 7.21741C10.8599 7.74208 10.4343 8.1676 9.90967 8.1676C9.38511 8.16747 8.95947 7.742 8.95947 7.21741V5.3092C7.45041 5.55312 6.6696 6.03198 6.1958 6.73401C5.54537 7.69822 5.28666 9.32169 5.28662 12.2086V12.6071H18.7144V12.2086C18.7143 9.32169 18.4546 7.69822 17.8042 6.73401C17.3303 6.03176 16.5493 5.55311 15.0396 5.3092V7.21741C15.0396 7.74208 14.614 8.1676 14.0894 8.1676C13.565 8.16721 13.1401 7.74183 13.1401 7.21741V4.06799H10.8599V7.21741Z" fill="#2F3438"/>
</svg>
