<svg width="24" height="24" viewBox="0 0 24 24" fill="none" xmlns="http://www.w3.org/2000/svg">
<mask id="mask0_4850_267" style="mask-type:alpha" maskUnits="userSpaceOnUse" x="1" y="2" width="21" height="20">
<path d="M8.05001 19.3002C8.7956 19.3002 9.40001 19.9046 9.40001 20.6502C9.40001 21.3958 8.7956 22.0002 8.05001 22.0002C7.30443 22.0002 6.70001 21.3958 6.70001 20.6502C6.70001 19.9046 7.30443 19.3002 8.05001 19.3002Z" fill="black"/>
<path d="M15.5 19.3002C16.2456 19.3002 16.85 19.9046 16.85 20.6502C16.85 21.3958 16.2456 22.0002 15.5 22.0002C14.7544 22.0002 14.15 21.3958 14.15 20.6502C14.15 19.9046 14.7544 19.3002 15.5 19.3002Z" fill="black"/>
<path fill-rule="evenodd" clip-rule="evenodd" d="M4.50953 2.2002C5.29799 2.2002 5.96791 2.77489 6.08951 3.55303L6.52921 6.3583H20.1C20.818 6.3583 21.4 6.94034 21.4 7.6583V10.4409C21.4 13.0616 21.114 15.0122 19.8884 16.2368C18.663 17.4613 16.7126 17.7458 14.0949 17.7458H8.66222C7.52948 17.7458 6.56541 16.9211 6.39 15.802L5.06061 7.32119C5.05548 7.2964 5.05152 7.27118 5.04874 7.2456L4.5088 3.80078L4.50875 3.80044L4.5087 3.8002H2.00001C1.55818 3.8002 1.20001 3.44202 1.20001 3.0002C1.20001 2.55837 1.55818 2.2002 2.00001 2.2002H4.50953ZM7.97067 15.5542C8.02406 15.8948 8.31748 16.1458 8.66222 16.1458H14.0949C16.7453 16.1458 18.0473 15.8146 18.7575 15.105C19.4675 14.3956 19.8 13.0937 19.8 10.4409V7.9583H6.78004L7.97067 15.5542Z" fill="black"/>
</mask>
<g mask="url(#mask0_4850_267)">
<rect width="24" height="24" fill="#141414"/>
</g>
</svg>
