<svg width="24" height="24" viewBox="0 0 24 24" fill="none" xmlns="http://www.w3.org/2000/svg">
<mask id="mask0_4850_220" style="mask-type:alpha" maskUnits="userSpaceOnUse" x="3" y="4" width="18" height="16">
<path d="M19.55 17.65C19.9918 17.65 20.35 18.0082 20.35 18.45C20.35 18.8918 19.9918 19.25 19.55 19.25H4.40001C3.95818 19.25 3.60001 18.8918 3.60001 18.45C3.60001 18.0082 3.95818 17.65 4.40001 17.65H19.55Z" fill="black"/>
<path d="M19.55 11.2C19.9918 11.2 20.35 11.5582 20.35 12C20.35 12.4418 19.9918 12.8 19.55 12.8H4.40001C3.95818 12.8 3.60001 12.4418 3.60001 12C3.60001 11.5582 3.95818 11.2 4.40001 11.2H19.55Z" fill="black"/>
<path d="M19.55 4.75C19.9918 4.75 20.35 5.10817 20.35 5.55C20.35 5.99183 19.9918 6.35 19.55 6.35H4.40001C3.95818 6.35 3.60001 5.99183 3.60001 5.55C3.60001 5.10817 3.95818 4.75 4.40001 4.75H19.55Z" fill="black"/>
</mask>
<g mask="url(#mask0_4850_220)">
<rect width="24" height="24" fill="#141414"/>
</g>
</svg>
