<svg preserveAspectRatio="none" width="100%" height="100%" overflow="visible" style="display: block;" viewBox="0 0 230.5 230.5" fill="none" xmlns="http://www.w3.org/2000/svg">
<g id="Vector">
<path id="Path" fill-rule="evenodd" clip-rule="evenodd" d="M100.597 30.1713C109.537 24.4851 120.962 24.4851 129.902 30.1713L187.178 66.6029C195.051 71.6106 199.819 80.2927 199.819 89.622V134.393L199.809 136.78V136.803C199.608 161.598 196.295 179.407 184.684 190.54C174.042 200.743 157.718 204.075 135.384 204.533V204.592H100.931C75.1985 204.592 56.7856 201.518 45.2709 190.009C33.7555 178.499 30.6799 160.092 30.6799 134.371V89.622C30.6801 80.2926 35.4484 71.6106 43.321 66.6029L100.597 30.1713ZM124.854 81.6352C124.191 81.6352 123.653 82.1728 123.653 82.8358V101.196C123.653 102.522 122.578 103.597 121.252 103.597H109.247C107.921 103.597 106.846 102.522 106.846 101.196V82.8358C106.846 82.1728 106.308 81.6352 105.645 81.6352C89.1811 81.6352 81.635 89.1808 81.6349 105.646V113.899C81.635 130.364 89.1811 137.909 105.645 137.909C106.308 137.909 106.846 138.447 106.846 139.11V163.271C106.846 164.597 107.921 165.672 109.247 165.672H121.252C122.578 165.672 123.653 164.597 123.653 163.271V139.11C123.653 138.447 124.191 137.909 124.854 137.909C141.318 137.909 148.864 130.364 148.864 113.899V105.646C148.864 89.1808 141.318 81.6352 124.854 81.6352Z" fill="var(--fill-0, #00A1FF)"/>
</g>
</svg>
