<svg width="24" height="24" viewBox="0 0 24 24" fill="none" xmlns="http://www.w3.org/2000/svg">
<path fill-rule="evenodd" clip-rule="evenodd" d="M13.437 13.5491C14.7011 13.5491 15.7888 13.6026 16.7036 13.7717C17.6229 13.9417 18.4313 14.2396 19.0845 14.7737C20.414 15.861 20.7695 17.6452 20.8374 19.9719C20.8409 20.0927 20.8468 20.243 20.8393 20.3752C20.831 20.522 20.8043 20.7237 20.7016 20.9358C20.5665 21.2147 20.3408 21.4469 20.0659 21.5901C19.8551 21.6997 19.6527 21.7311 19.5073 21.7434C19.3744 21.7546 19.2223 21.7532 19.0981 21.7532H4.90184C4.77769 21.7532 4.62554 21.7546 4.49266 21.7434C4.34721 21.7311 4.14493 21.6998 3.93407 21.5901C3.65911 21.4469 3.43348 21.2148 3.29833 20.9358C3.1957 20.7237 3.1699 20.522 3.16161 20.3752C3.15417 20.243 3.15906 20.0928 3.16258 19.9719C3.23047 17.6452 3.58591 15.861 4.91551 14.7737C5.56874 14.2395 6.37698 13.9417 7.29637 13.7717C8.21135 13.6026 9.29956 13.5491 10.564 13.5491H13.437ZM10.564 15.4495C9.33302 15.4495 8.38352 15.5028 7.64208 15.6399C6.90531 15.7761 6.43753 15.9837 6.11864 16.2444C5.51954 16.7343 5.14973 17.6653 5.06883 19.8538H18.9321C18.8512 17.6653 18.4804 16.7343 17.8813 16.2444C17.5625 15.9838 17.0953 15.7761 16.3589 15.6399C15.6175 15.5028 14.6679 15.4495 13.437 15.4495H10.564Z" fill="#2F3438"/>
<path fill-rule="evenodd" clip-rule="evenodd" d="M12.0005 2.24634C14.8721 2.2466 17.2007 4.57482 17.2007 7.44653C17.2007 10.3183 14.8721 12.6465 12.0005 12.6467C9.12859 12.6467 6.80028 10.3184 6.80028 7.44653C6.80028 4.57465 9.12859 2.24634 12.0005 2.24634ZM12.0005 4.14673C10.1779 4.14673 8.70067 5.62399 8.70067 7.44653C8.70067 9.26907 10.1779 10.7463 12.0005 10.7463C13.8228 10.7461 15.3003 9.26891 15.3003 7.44653C15.3003 5.62416 13.8228 4.14699 12.0005 4.14673Z" fill="#2F3438"/>
</svg>
