<svg width="24" height="24" viewBox="0 0 24 24" fill="none" xmlns="http://www.w3.org/2000/svg">
<path d="M15.0249 9.26238C15.7612 10.1634 16.9599 10.7214 18.2163 10.7214C19.0821 10.7213 19.9207 10.4556 20.6 9.99577V12.9811C20.6 15.7563 20.262 17.8283 18.9331 19.1392C17.6062 20.4479 15.5166 20.7749 12.729 20.775H11.0386C8.25701 20.775 6.2062 20.4514 4.93321 19.1226C3.67335 17.8075 3.40005 15.7336 3.40002 12.9811V9.99284C4.08213 10.4546 4.92443 10.7213 5.7916 10.7214C7.04766 10.7213 8.24571 10.1631 8.98199 9.26238C9.63257 10.1497 10.7147 10.7212 12.0034 10.7214C13.292 10.7213 14.3742 10.1495 15.0249 9.26238ZM8.32282 3.19995V7.22334C8.32282 8.28689 7.26393 9.32084 5.7916 9.32098C4.64003 9.32095 3.74048 8.6886 3.40002 7.90693V5.5925C3.40002 4.2713 4.47695 3.19995 5.80527 3.19995H8.32282ZM14.2847 3.19995V7.22334C14.2847 8.35712 13.3986 9.32084 12.0034 9.32098C10.6084 9.32075 9.72319 8.35707 9.72319 7.22334V3.19995H14.2847ZM18.1948 3.19995C19.5231 3.2 20.6 4.27133 20.6 5.5925V7.90986C20.2602 8.69083 19.3649 9.32084 18.2163 9.32098C16.7438 9.32098 15.685 8.28696 15.685 7.22334V3.19995H18.1948Z" fill="#2F3438"/>
</svg>
