<svg width="24" height="24" viewBox="0 0 24 24" fill="none" xmlns="http://www.w3.org/2000/svg">
<path d="M18.6309 2.98145C19.9945 2.98171 21.1005 4.08744 21.1006 5.45117V13.2764C21.1006 15.9898 20.7751 18.0647 19.4443 19.3848C18.1158 20.7022 16.0356 21.0185 13.3252 21.0186H10.6768C7.96598 21.0186 5.8853 20.7022 4.55664 19.3848C3.22565 18.0647 2.89941 15.99 2.89941 13.2764V5.45117C2.89949 4.08732 4.00627 2.98152 5.37012 2.98145H18.6309ZM14.7324 10.3545C14.0477 11.065 13.0615 11.4988 12.0039 11.499C10.9461 11.499 9.9593 11.0651 9.27441 10.3545C8.58972 11.0651 7.60345 11.4988 6.5459 11.499C5.91864 11.499 5.32245 11.3466 4.80078 11.0771V13.2764C4.80078 15.9955 5.17138 17.3176 5.89453 18.0352C6.6205 18.755 7.95445 19.1182 10.6768 19.1182H13.3252C16.047 19.1181 17.3806 18.755 18.1064 18.0352C18.8294 17.3176 19.2002 15.9952 19.2002 13.2764V11.0801C18.6809 11.3479 18.0876 11.4989 17.4619 11.499C16.4041 11.499 15.4173 11.0652 14.7324 10.3545ZM5.37012 4.88184C5.05561 4.88191 4.80086 5.13666 4.80078 5.45117V8.02441C4.80117 8.84104 5.50893 9.59961 6.5459 9.59961C7.5985 9.59917 8.32381 8.82578 8.32422 8.02441V4.88184H5.37012ZM10.2246 8.02441C10.225 8.826 10.9508 9.59961 12.0039 9.59961C13.0566 9.59926 13.7828 8.82582 13.7832 8.02441V4.88184H10.2246V8.02441ZM15.6826 8.02441C15.683 8.82601 16.4088 9.59961 17.4619 9.59961C18.4957 9.59935 19.1998 8.84367 19.2002 8.02441V5.45117C19.2001 5.13678 18.9452 4.8821 18.6309 4.88184H15.6826V8.02441Z" fill="#2F3438"/>
</svg>
