<svg width="24" height="24" viewBox="0 0 24 24" fill="none" xmlns="http://www.w3.org/2000/svg">
<mask id="mask0_4850_246" style="mask-type:alpha" maskUnits="userSpaceOnUse" x="3" y="2" width="18" height="20">
<path d="M13.5822 19.825C13.8725 19.492 14.3778 19.4573 14.7109 19.7476C15.0439 20.0379 15.0786 20.5433 14.7883 20.8763C14.1723 21.583 13.1835 22 12 22C10.8165 21.9999 9.82764 21.583 9.21171 20.8763C8.92141 20.5433 8.95609 20.0379 9.28915 19.7476C9.62221 19.4573 10.1276 19.492 10.4179 19.825C10.6724 20.117 11.1835 20.3999 12 20.4C12.8165 20.4 13.3277 20.117 13.5822 19.825Z" fill="black"/>
<path fill-rule="evenodd" clip-rule="evenodd" d="M12 2.75C15.033 2.75 17.1739 3.09157 18.46 4.51401C19.104 5.22614 19.4686 6.13832 19.6776 7.2188C19.8855 8.29344 19.95 9.59308 19.95 11.1325V16.95H20.15C20.5918 16.95 20.95 17.3082 20.95 17.75C20.95 18.1918 20.5918 18.55 20.15 18.55H3.84999C3.40816 18.55 3.04999 18.1918 3.04999 17.75C3.04999 17.3082 3.40816 16.95 3.84999 16.95H4.04999V11.1325C4.04999 9.59308 4.11449 8.29344 4.32235 7.2188C4.53134 6.13832 4.89603 5.22614 5.53993 4.51401C6.8261 3.09157 8.96701 2.75 12 2.75ZM12 4.35C8.92187 4.35 7.48775 4.74542 6.7267 5.58711C6.34699 6.00705 6.07002 6.60875 5.89325 7.52266C5.71535 8.44241 5.64999 9.61771 5.64999 11.1325V16.95H18.35V11.1325C18.35 9.61771 18.2846 8.44241 18.1067 7.52266C17.93 6.60875 17.653 6.00705 17.2733 5.58711C16.5122 4.74542 15.0781 4.35 12 4.35Z" fill="black"/>
</mask>
<g mask="url(#mask0_4850_246)">
<rect width="24" height="24" fill="#141414"/>
</g>
</svg>
