<svg preserveAspectRatio="xMidYMid meet" width="24" height="24" overflow="visible" style="display: block;" viewBox="0 0 15.6 18.3" fill="none" xmlns="http://www.w3.org/2000/svg">
<path id="Vector" fill-rule="evenodd" clip-rule="evenodd" d="M11.3 0C12.6058 0 13.7292 0.297862 14.5157 1.08428C15.3021 1.8707 15.6 2.99416 15.6 4.3V16.6944C15.6 17.2423 15.3446 17.743 14.9101 18.0391C14.466 18.3417 13.8876 18.3919 13.3632 18.1327C13.3514 18.1269 13.3398 18.1207 13.3283 18.1144L7.8 15.0343L2.27168 18.1144C2.26022 18.1207 2.24858 18.1269 2.23682 18.1327C1.71236 18.3919 1.13398 18.3417 0.689893 18.0391C0.255432 17.743 1.48227e-05 17.2423 0 16.6944V4.3C0 2.99416 0.29789 1.8707 1.08433 1.08428C1.87076 0.297862 2.99422 0 4.3 0H11.3ZM4.3 1.6C3.20578 1.6 2.57924 1.85211 2.21567 2.21567C1.85212 2.57923 1.6 3.20575 1.6 4.3V16.657L7.41064 13.4197L7.4335 13.4075C7.67107 13.285 7.95487 13.2891 8.18936 13.4197L14 16.657V4.3C14 3.20575 13.7479 2.57923 13.3843 2.21567C13.0208 1.85211 12.3942 1.6 11.3 1.6H4.3Z" fill="var(--fill-0, black)"/>
</svg>
