<svg preserveAspectRatio="xMidYMid meet" width="24" height="24" overflow="visible" style="display: block;" viewBox="0 0 17.9 19.25" fill="none" xmlns="http://www.w3.org/2000/svg">
<g id="Vector">
<path d="M10.5322 17.075C10.8225 16.742 11.3278 16.7073 11.6609 16.9976C11.994 17.2879 12.0286 17.7933 11.7383 18.1263C11.1223 18.833 10.1335 19.25 8.95 19.25C7.76654 19.2499 6.77766 18.833 6.16172 18.1263C5.87142 17.7933 5.9061 17.2879 6.23916 16.9976C6.57223 16.7073 7.07757 16.742 7.36787 17.075C7.62237 17.367 8.13349 17.6499 8.95 17.65C9.76653 17.65 10.2777 17.367 10.5322 17.075Z" fill="var(--fill-0, black)"/>
<path fill-rule="evenodd" clip-rule="evenodd" d="M8.95 0C11.983 0 14.1239 0.341572 15.4101 1.76401C16.054 2.47614 16.4186 3.38832 16.6276 4.4688C16.8355 5.54344 16.9 6.84308 16.9 8.38252V14.2H17.1C17.5418 14.2 17.9 14.5582 17.9 15C17.9 15.4418 17.5418 15.8 17.1 15.8H0.8C0.358172 15.8 0 15.4418 0 15C0 14.5582 0.358172 14.2 0.8 14.2H1V8.38252C1 6.84308 1.0645 5.54344 1.27236 4.4688C1.48136 3.38832 1.84604 2.47614 2.48994 1.76401C3.77611 0.341572 5.91702 0 8.95 0ZM8.95 1.6C5.87188 1.6 4.43776 1.99542 3.67671 2.83711C3.29701 3.25705 3.02003 3.85875 2.84326 4.77266C2.66536 5.69241 2.6 6.86771 2.6 8.38252V14.2H15.3V8.38252C15.3 6.86771 15.2346 5.69241 15.0567 4.77266C14.88 3.85875 14.603 3.25705 14.2233 2.83711C13.4622 1.99542 12.0281 1.6 8.95 1.6Z" fill="var(--fill-0, black)"/>
</g>
</svg>
