<svg preserveAspectRatio="xMidYMid meet" width="24" height="24" overflow="visible" style="display: block;" viewBox="0 0 16.75 14.5" fill="none" xmlns="http://www.w3.org/2000/svg">
<g id="Vector">
<path d="M15.95 12.9C16.3918 12.9 16.75 13.2582 16.75 13.7C16.75 14.1418 16.3918 14.5 15.95 14.5H0.8C0.358172 14.5 0 14.1418 0 13.7C0 13.2582 0.358172 12.9 0.8 12.9H15.95Z" fill="var(--fill-0, black)"/>
<path d="M15.95 6.45C16.3918 6.45 16.75 6.80817 16.75 7.25C16.75 7.69183 16.3918 8.05 15.95 8.05H0.8C0.358172 8.05 0 7.69183 0 7.25C0 6.80817 0.358172 6.45 0.8 6.45H15.95Z" fill="var(--fill-0, black)"/>
<path d="M15.95 0C16.3918 0 16.75 0.358172 16.75 0.8C16.75 1.24183 16.3918 1.6 15.95 1.6H0.8C0.358172 1.6 0 1.24183 0 0.8C0 0.358172 0.358172 0 0.8 0H15.95Z" fill="var(--fill-0, black)"/>
</g>
</svg>
