<svg preserveAspectRatio="xMidYMid meet" width="24" height="24" overflow="visible" style="display: block;" viewBox="0 0 20.2 19.8" fill="none" xmlns="http://www.w3.org/2000/svg">
<g id="Vector">
<path d="M6.85 17.1C7.59558 17.1 8.2 17.7044 8.2 18.45C8.2 19.1956 7.59558 19.8 6.85 19.8C6.10442 19.8 5.5 19.1956 5.5 18.45C5.5 17.7044 6.10442 17.1 6.85 17.1Z" fill="var(--fill-0, black)"/>
<path d="M14.3 17.1C15.0456 17.1 15.65 17.7044 15.65 18.45C15.65 19.1956 15.0456 19.8 14.3 19.8C13.5544 19.8 12.95 19.1956 12.95 18.45C12.95 17.7044 13.5544 17.1 14.3 17.1Z" fill="var(--fill-0, black)"/>
<path fill-rule="evenodd" clip-rule="evenodd" d="M3.30952 0C4.09797 3.67018e-06 4.7679 0.574694 4.8895 1.35283L5.3292 4.15811H18.9C19.618 4.15811 20.2 4.74014 20.2 5.45811V8.24072C20.2 10.8614 19.914 12.812 18.6884 14.0366C17.463 15.2611 15.5126 15.5457 12.8949 15.5457H7.46221C6.32947 15.5456 5.3654 14.7209 5.18999 13.6018L3.8606 5.121C3.85547 5.0962 3.85151 5.07099 3.84873 5.04541L3.30879 1.60059L3.30874 1.60024L3.30869 1.6H0.8C0.358172 1.6 0 1.24183 0 0.8C0 0.358172 0.358172 0 0.8 0H3.30952ZM6.77065 13.3541C6.82404 13.6946 7.11747 13.9456 7.46221 13.9457H12.8949C15.5453 13.9457 16.8473 13.6144 17.5575 12.9048C18.2674 12.1954 18.6 10.8935 18.6 8.24072V5.75811H5.58003L6.77065 13.3541Z" fill="var(--fill-0, black)"/>
</g>
</svg>
