<?xml version="1.0" encoding="UTF-8"?>
<svg xmlns="http://www.w3.org/2000/svg" style="display:none">
  <symbol id="asset-gnb-house" viewBox="0 0 480 480">
    <path fill="currentColor" d="M202.96 51.781c22.6-14.375 51.48-14.375 74.08 0l120.001 76.329A68.97 68.97 0 0 1 429 186.307v93.851l-.021 5v.097c-.423 52.002-7.143 93.996-35.329 121.018-23.564 22.593-57.685 30.362-99.65 32.234V439h-84c-53.827 0-97.085-6.143-124.967-34.012-27.45-27.437-33.835-69.772-34.028-122.411L51 280.062v-93.755l.009-1.105A68.98 68.98 0 0 1 82.96 128.11zm48.319 40.501a21.02 21.02 0 0 0-22.558 0l-120 76.328A20.98 20.98 0 0 0 99 186.308v93.754l.006 2.516c.225 52.385 7.544 76.05 19.961 88.461C131.585 383.651 155.827 391 210 391h36v-.003h24c53.29 0 77.641-7.109 90.432-19.372 12.507-11.992 20.119-34.948 20.547-86.671l.021-4.894v-93.752a20.97 20.97 0 0 0-9.722-17.697z"/>
  </symbol>
  <symbol id="asset-gnb-house-filled" viewBox="0 0 480 480">
    <path fill="currentColor" d="M203.496 52.625c22.273-14.167 50.735-14.167 73.008 0l120 76.329A67.97 67.97 0 0 1 428 186.307v93.846l-.021 5.001v.092c-.423 51.998-7.162 93.596-35.021 120.306-23.479 22.51-57.63 30.201-99.958 31.995V438h-83c-53.834 0-96.696-6.168-124.26-33.719-27.137-27.124-33.541-69.07-33.735-121.704L52 280.062v-93.755l.009-1.088a67.97 67.97 0 0 1 31.487-56.265z"/>
  </symbol>
  <symbol id="asset-gnb-bubble" viewBox="0 0 480 480">
    <path fill="currentColor" d="M282.046 49.22C380.444 51.73 425 99.105 425 200.65l-.008 3.604-.027 3.539c-1.507 149.065-50.608 200.276-137.33 219.26l-5.473 1.19-2.104.448c-9.893 2.081-15.776 2.922-19.944 1.462l-.425-.159-.488-.21c-4.523-2.089-7.556-5.546-9.005-10.261l-.134-.461c-1.336-4.759 1.28-12.437 6.827-26.676l2.553-6.515q.551-1.398 1.036-2.754l.315-.898c.995-2.887 1.491-4.331.901-6.735-.425-1.73-2.148-4.132-3.651-5.088-2.088-1.329-4.08-1.318-8.064-1.295l-52.025.291v-.057C83.863 367.908 55 336.23 55 217.854V200.65C55 82.275 83.863 50.596 197.954 49.169v-.056h84.092zm-83.491 47.945c-56.531.707-73.265 9.703-79.855 16.729-7.372 7.858-15.7 27.339-15.7 86.756v17.204c0 59.418 8.329 78.898 15.7 86.756 6.59 7.025 23.323 16.021 79.855 16.728l2.745.034 48.409-.271c.325-.002 17.336-1.48 33.346 8.325l.761.475.72.467c7.353 4.851 12.124 10.658 14.737 14.3 2.614 3.642 6.587 10.023 8.827 18.542l.211.831.196.826c.42 1.83.732 3.619.955 5.357 17.857-7.719 30.295-18.041 39.634-31.79 15.486-22.802 27.534-62.412 27.896-134.421l.008-3.363-.007-2.083c-.304-43.414-10.118-65.78-21.489-77.836-11.239-11.916-32.231-22.444-74.683-23.527l-3.562-.09h-74.566z"/>
  </symbol>
  <symbol id="asset-gnb-bubble-filled" viewBox="0 0 480 480">
    <path fill="currentColor" d="M281.363 52.315C378.166 54.784 422 101.39 422 201.289l-.008 3.544c-.751 149.335-49.142 200.363-135.13 219.187l-5.383 1.171c-11.351 2.44-17.71 3.48-22.109 1.722l-.48-.207c-4.593-2.121-7.624-5.676-8.992-10.547-1.502-5.351 2.076-14.452 9.23-32.653a91 91 0 0 0 1.327-3.593c.979-2.841 1.468-4.262.888-6.626-.418-1.703-2.113-4.064-3.592-5.006-2.054-1.307-4.014-1.296-7.934-1.274l-51.18.287v-.057C86.395 365.833 58 334.67 58 218.214v-16.925C58 84.833 86.395 53.668 198.637 52.264v-.055h82.726z"/>
  </symbol>
  <symbol id="asset-gnb-shopping-bag" viewBox="0 0 480 480">
    <path fill="currentColor" fill-rule="evenodd" clip-rule="evenodd" d="M240 29.375c58.448 0 104.356 41.145 104.356 100.071v4.251h38.93c19.172.001 34.714 15.542 34.714 34.714v183.368c0 27.282-6.211 52.314-24.105 70.208-17.895 17.894-42.927 24.105-70.207 24.105H156.312c-27.28 0-52.312-6.211-70.206-24.105S62 379.061 62 351.779V168.411c0-19.172 15.542-34.714 34.714-34.714h38.929v-4.251c0-58.926 45.908-100.071 104.357-100.071M110 351.779c0 20.934 4.838 31.059 10.046 36.267s15.333 10.046 36.266 10.046h167.376c20.933 0 31.058-4.838 36.266-10.046S370 372.713 370 351.779V181.697H110zM240 77.375c-34.597 0-56.357 22.237-56.357 52.071v4.251h112.713v-4.251c0-29.833-21.759-52.07-56.356-52.071"/>
  </symbol>
  <symbol id="asset-gnb-sparkles-house" viewBox="0 0 480 480">
    <path fill="currentColor" d="M273.066 206c4.288 0 7.921 3.092 8.872 7.272 7.634 33.574 25.216 51.176 58.775 58.832 4.189.955 7.287 4.598 7.287 8.895s-3.098 7.939-7.287 8.895c-33.559 7.655-51.141 25.26-58.775 58.834-.951 4.18-4.584 7.272-8.872 7.272-4.287 0-7.921-3.092-8.872-7.272-7.645-33.626-25.27-51.233-58.928-58.87-4.177-.947-7.266-4.577-7.266-8.859s3.089-7.912 7.266-8.859c33.658-7.637 51.283-25.243 58.928-58.868.951-4.18 4.585-7.272 8.872-7.272M182.533 161c2.144 0 3.96 1.546 4.436 3.636 3.817 16.787 12.608 25.588 29.387 29.416 2.095.478 3.644 2.299 3.644 4.447s-1.549 3.97-3.644 4.448c-16.779 3.828-25.57 12.63-29.387 29.417-.476 2.09-2.292 3.636-4.436 3.636-2.143 0-3.96-1.546-4.435-3.636-3.823-16.812-12.636-25.617-29.465-29.435-2.088-.474-3.633-2.289-3.633-4.43s1.545-3.956 3.633-4.43c16.829-3.818 25.642-12.621 29.465-29.433.475-2.09 2.292-3.636 4.435-3.636"/>
    <path fill="currentColor" fill-rule="evenodd" clip-rule="evenodd" d="M204.033 53.469c21.945-13.959 49.989-13.959 71.934 0l120 76.329A66.97 66.97 0 0 1 427 186.307v93.842l-.021 5v.089c-.423 51.994-7.181 93.195-34.713 119.592-23.391 22.425-57.567 30.041-100.266 31.758V437h-82c-53.841 0-96.307-6.194-123.553-33.427-26.823-26.811-33.248-68.367-33.442-120.996L53 280.063v-93.756l.009-1.073a66.97 66.97 0 0 1 31.024-55.436zm48.32 37.126a23.02 23.02 0 0 0-24.706 0l-120 76.329A22.98 22.98 0 0 0 97 186.308v93.755l.005 2.515c.224 52.395 7.505 76.838 20.548 89.875C130.807 385.701 155.841 393 210 393h38v-.003h22c53.279 0 78.395-7.062 91.815-19.929 13.161-12.617 20.736-36.365 21.164-88.098l.021-4.91v-93.752a22.97 22.97 0 0 0-10.647-19.384z"/>
  </symbol>
  <symbol id="asset-gnb-sparkles-house-filled" viewBox="0 0 480 480">
    <path fill="currentColor" fill-rule="evenodd" clip-rule="evenodd" d="M202.96 51.781c22.6-14.374 51.48-14.374 74.08 0l120.001 76.33A68.97 68.97 0 0 1 429 186.307v93.851l-.021 5v.097c-.423 52.002-7.143 93.996-35.329 121.019-23.564 22.592-57.685 30.361-99.65 32.233V439h-84c-53.827 0-97.085-6.143-124.967-34.012-27.45-27.437-33.835-69.772-34.028-122.411L51 280.063v-93.756l.009-1.105a68.97 68.97 0 0 1 31.951-57.091zM273.066 206c-4.287 0-7.921 3.092-8.872 7.273-7.645 33.624-25.27 51.23-58.928 58.867-4.177.947-7.266 4.577-7.266 8.859s3.089 7.912 7.266 8.86c33.658 7.636 51.283 25.244 58.928 58.869.951 4.18 4.585 7.272 8.872 7.272 4.288 0 7.921-3.092 8.872-7.272 7.634-33.574 25.216-51.179 58.775-58.834 4.189-.956 7.287-4.598 7.287-8.895s-3.098-7.94-7.287-8.895c-33.559-7.655-51.141-25.258-58.775-58.831-.951-4.181-4.584-7.273-8.872-7.273m-90.533-45c-2.143 0-3.96 1.546-4.435 3.636-3.823 16.812-12.636 25.615-29.465 29.434-2.088.473-3.633 2.288-3.633 4.429s1.545 3.956 3.633 4.43c16.829 3.818 25.642 12.623 29.465 29.435.475 2.09 2.292 3.636 4.435 3.636 2.144 0 3.96-1.546 4.436-3.636 3.817-16.786 12.608-25.589 29.387-29.417 2.095-.477 3.644-2.299 3.644-4.448 0-2.148-1.549-3.969-3.644-4.447-16.779-3.828-25.57-12.629-29.387-29.416-.476-2.09-2.292-3.636-4.436-3.636"/>
  </symbol>
  <symbol id="asset-gnb-person" viewBox="0 0 480 480">
    <path fill="currentColor" d="M268.731 267.986c25.375 0 47.499 1.071 66.255 4.538 18.868 3.489 35.927 9.68 49.871 21.084 28.472 23.286 35.536 61.105 36.894 107.677.069 2.335.184 5.596.019 8.511-.185 3.273-.779 8.023-3.232 13.091a34.17 34.17 0 0 1-14.903 15.343c-5.045 2.627-9.832 3.344-13.068 3.617-2.917.246-6.204.225-8.603.225H98.037c-2.399 0-5.686.021-8.603-.225-3.236-.273-8.022-.99-13.068-3.617a34.16 34.16 0 0 1-14.903-15.343c-2.453-5.068-3.047-9.818-3.232-13.091-.165-2.915-.05-6.176.018-8.511 1.36-46.573 8.425-84.392 36.899-107.678 13.945-11.403 31.003-17.594 49.872-21.083 18.756-3.467 40.88-4.538 66.256-4.538zm-57.455 48c-24.533 0-43.156 1.08-57.529 3.738-14.26 2.636-22.715 6.546-28.213 11.042-9.739 7.963-16.967 23.508-18.965 63.306h266.863c-1.997-39.799-9.224-55.344-18.962-63.307-5.497-4.496-13.952-8.405-28.211-11.041-14.372-2.658-32.995-3.738-57.528-3.738zm28.725-279.058c60.198 0 109 48.8 109 109 0 60.199-48.802 108.999-109 109-60.2 0-109-48.801-109-109 0-60.2 48.8-109 109-109m0 48c-33.69 0-61 27.31-61 61s27.31 61 61 61c33.689-.001 61-27.311 61-61s-27.311-61-61-61"/>
  </symbol>
  <symbol id="asset-gnb-person-filled" viewBox="0 0 480 480">
    <path fill="currentColor" d="M273.398 273.496c23.13.097 43.131.952 60.042 3.641 18.072 2.873 34.074 8.047 47.075 17.885 26.788 20.272 33.879 54.759 35.236 100.931l.056 1.914c.052 1.983.081 4.136-.028 6.085-.162 2.868-.668 6.74-2.641 10.817a28.16 28.16 0 0 1-12.272 12.638c-4.056 2.112-7.958 2.72-10.804 2.96-2.606.22-5.599.205-8.099.205H98.036c-2.5 0-5.493.015-8.1-.205-2.845-.24-6.746-.848-10.802-2.96a28.16 28.16 0 0 1-12.273-12.638c-1.973-4.077-2.48-7.949-2.64-10.817-.147-2.599-.045-5.56.026-7.999 1.358-46.173 8.45-80.659 35.24-100.931 13.001-9.837 29.004-15.012 47.077-17.885 18.038-2.868 39.593-3.651 64.711-3.651h57.455zM239.999 49.428c55.229 0 100 44.771 100 100s-44.771 100-100 100-100-44.772-100-100 44.772-100 100-100"/>
  </symbol>
</svg>
