<svg preserveAspectRatio="none" width="100%" height="100%" overflow="visible" style="display: block;" viewBox="0 0 14.9624 15.0014" fill="none" xmlns="http://www.w3.org/2000/svg">
<g id="Vector">
<path d="M2.99812 9.68642C2.99812 10.5143 2.32697 11.1855 1.49906 11.1855C0.671153 11.1855 0 10.5143 0 9.68642C0 8.85851 0.671153 8.18735 1.49906 8.18735C2.32697 8.18735 2.99812 8.85851 2.99812 9.68642Z" fill="#FFC9B2"/>
<path d="M14.9624 9.68642C14.9624 10.5143 14.2912 11.1855 13.4633 11.1855C12.6354 11.1855 11.9642 10.5143 11.9642 9.68642C11.9642 8.85851 12.6354 8.18735 13.4633 8.18735C14.2912 8.18735 14.9624 8.85851 14.9624 9.68642Z" fill="#FFC9B2"/>
<path d="M2.37969 6.07266C1.95015 6.92995 1.71201 7.91272 1.71201 8.9574C1.71201 12.2954 4.14326 15.0014 7.48125 15.0014C10.8192 15.0014 13.2505 12.2954 13.2505 8.9574C13.2505 7.91272 13.0123 6.92995 12.5828 6.07266H2.37969Z" fill="#FFC9B3"/>
<path d="M12.691 6.30031H2.27146C1.91033 7.10224 1.71201 8.00404 1.71201 8.9574C1.71201 9.24326 1.72984 9.52448 1.76455 9.79977L1.7813 9.90032L2.09732 9.05761C2.44859 8.12087 3.34408 7.5003 4.34451 7.5003H10.6181C11.6185 7.5003 12.514 8.12087 12.8653 9.05761L13.1813 9.90032L13.1973 9.8045C13.2324 9.52768 13.2504 9.24485 13.2504 8.95732C13.2504 8.004 13.0521 7.10222 12.691 6.30031Z" fill="#424242"/>
<path d="M9.40432 9.53724C9.40432 9.87256 9.13249 10.1444 8.79718 10.1444C8.46186 10.1444 8.19003 9.87256 8.19003 9.53724C8.19003 9.20193 8.46186 8.9301 8.79718 8.9301C9.13249 8.9301 9.40432 9.20193 9.40432 9.53724Z" fill="#424242"/>
<path d="M6.77248 9.53724C6.77248 9.87256 6.50065 10.1444 6.16533 10.1444C5.83002 10.1444 5.55819 9.87256 5.55819 9.53724C5.55819 9.20193 5.83002 8.9301 6.16533 8.9301C6.50065 8.9301 6.77248 9.20193 6.77248 9.53724Z" fill="#424242"/>
<path d="M7.48129 12.0823C8.15648 12.0823 8.72331 11.6183 8.88037 10.9918C8.92809 10.8015 8.76451 10.64 8.56826 10.64H6.39431C6.19807 10.64 6.03448 10.8015 6.0822 10.9918C6.23926 11.6183 6.80609 12.0823 7.48129 12.0823Z" fill="#F16C6C"/>
<path d="M0.450027 6.96547C0.450027 6.34415 0.953707 5.84047 1.57503 5.84047H13.3875C14.0088 5.84047 14.5125 6.34415 14.5125 6.96547V7.19047C14.5125 7.68753 14.1096 8.09047 13.6125 8.09047H1.35003C0.852972 8.09047 0.450027 7.68753 0.450027 7.19047V6.96547Z" fill="var(--fill-0, #FC8959)"/>
<path d="M5.73319 0.744416C5.73319 0.541578 5.85668 0.359175 6.04501 0.283841C6.99112 -0.0946185 8.04663 -0.0946061 8.99276 0.283833C9.17685 0.357467 9.299 0.533404 9.30443 0.73073V2.90864C9.30443 3.20451 9.54428 3.44436 9.84014 3.44436C10.136 3.44436 10.3759 3.20451 10.3759 2.90864V1.35963C12.4927 2.29465 13.9475 4.23632 13.9475 6.48002H1.09032C1.09032 4.23645 2.54493 2.29488 4.66157 1.35979V2.90864C4.66157 3.20451 4.90142 3.44436 5.19728 3.44436C5.49315 3.44436 5.733 3.20451 5.733 2.90864V0.989123L5.73319 0.989074V0.744416Z" fill="var(--fill-0, #FC8959)"/>
</g>
</svg>
